<svg id="Component_4_1" data-name="Component 4 – 1" xmlns="http://www.w3.org/2000/svg" width="46.154" height="31.731" viewBox="0 0 46.154 31.731">
  <path id="Path_222" data-name="Path 222" d="M46.154,87.482V85.048A5.048,5.048,0,0,0,41.106,80H5.048A5.048,5.048,0,0,0,0,85.048v2.434a.451.451,0,0,0,.451.451H45.7A.451.451,0,0,0,46.154,87.482Z" transform="translate(0 -80)" fill="#909aa2"/>
  <path id="Path_223" data-name="Path 223" d="M0,200.451v15.415a5.048,5.048,0,0,0,5.048,5.048H41.106a5.048,5.048,0,0,0,5.048-5.048V200.451A.451.451,0,0,0,45.7,200H.451A.451.451,0,0,0,0,200.451ZM11.539,212.26A1.442,1.442,0,0,1,10.1,213.7H8.654a1.442,1.442,0,0,1-1.442-1.442v-1.442a1.442,1.442,0,0,1,1.442-1.442H10.1a1.442,1.442,0,0,1,1.442,1.442Z" transform="translate(0 -189.183)" fill="#909aa2"/>
</svg>
