<svg id="Component_5_1" data-name="Component 5 – 1" xmlns="http://www.w3.org/2000/svg" width="49.883" height="46.767" viewBox="0 0 49.883 46.767">
  <path id="Path_219" data-name="Path 219" d="M49.637,40.025l-5.4-7.958,5.4-7.958a1.46,1.46,0,0,0-.754-2.2L31.249,16.068a1.453,1.453,0,0,0-1.678.575l-4.63,6.944-4.63-6.944a1.453,1.453,0,0,0-1.678-.575L1,21.913a1.46,1.46,0,0,0-.753,2.2l5.4,7.958-5.4,7.958A1.46,1.46,0,0,0,1,42.222l17.634,5.846a1.461,1.461,0,0,0,1.678-.575l4.63-6.944,4.63,6.944a1.46,1.46,0,0,0,1.678.575l17.634-5.846a1.46,1.46,0,0,0,.753-2.2Zm-24.7-3.652L12.024,32.067l12.917-4.306,12.917,4.306Z" transform="translate(0 -15.99)" fill="#909aa2"/>
  <path id="Path_220" data-name="Path 220" d="M87.233,327.161a4.381,4.381,0,0,1-5.035-1.727l-2.2-3.3-2.2,3.3a4.38,4.38,0,0,1-5.042,1.724L61,323.239v8.532a1.46,1.46,0,0,0,1,1.386L79.529,339a1.324,1.324,0,0,0,.158.044,0,0,0,0,1,0,0h0a1.52,1.52,0,0,0,.31.033,1.49,1.49,0,0,0,.327-.037c.049-.011.1-.024.143-.04L98,333.157a1.46,1.46,0,0,0,1-1.386V323.24Z" transform="translate(-55.059 -292.311)" fill="#909aa2"/>
</svg>
