<svg xmlns="http://www.w3.org/2000/svg" width="62" height="36.691" viewBox="0 0 62 36.691">
  <path id="Path_221" data-name="Path 221" d="M44.2,104.365c5.375,1.247,7.432,4.39,10.01,8.717H44.2Zm-31.414,9.08a1.6,1.6,0,0,1,1.816,1.7,1.816,1.816,0,0,1-1.811,1.816H1.816a1.816,1.816,0,0,0,0,3.633H18.164a1.816,1.816,0,1,1,.007,3.633H1.816a1.816,1.816,0,0,0,0,3.633h4V133.3a1.816,1.816,0,0,0,1.816,1.816H11.28a6.964,6.964,0,0,0,13.647,0H43.37a6.964,6.964,0,0,0,13.647,0h3.167A1.816,1.816,0,0,0,62,133.3v-10.9c0-5.33-5.621-5.683-5.627-5.691H42.383a1.816,1.816,0,0,1-1.816-1.816V104H7.629a1.816,1.816,0,0,0-1.816,1.816v4H3.633a1.816,1.816,0,0,0,0,3.633Zm39.763,17.929a3.33,3.33,0,1,1-5.685,2.355A3.331,3.331,0,0,1,52.548,131.374Zm-32.09,0a3.33,3.33,0,1,1-5.685,2.355A3.331,3.331,0,0,1,20.458,131.374Z" transform="translate(0 -104)" fill="#909aa2" fill-rule="evenodd"/>
</svg>
