<svg xmlns="http://www.w3.org/2000/svg" width="41.134" height="41" viewBox="0 0 41.134 41">
  <g id="shop_now_button" data-name="shop now button" transform="translate(0.5 0.5)">
    <rect id="bg" width="40.134" height="40" rx="20" fill="none" stroke="#bf8175" stroke-width="1"/>
    <g id="gift-box" transform="translate(-106.383 -119.748)">
      <path id="Path_94" data-name="Path 94" d="M125.664,132.243h1.58l.192-.5a1.362,1.362,0,0,1,1.19-.867.7.7,0,0,1,.75.6.69.69,0,0,1-.682.774h-1.45v3.315h6.946a.81.81,0,0,0,.812-.812v-1.685a.81.81,0,0,0-.812-.812h-3.34a2.272,2.272,0,0,0-2.162-2.955,2.928,2.928,0,0,0-2.237,1.047,2.942,2.942,0,0,0-2.237-1.041,2.269,2.269,0,0,0-2.268,2.268,2.242,2.242,0,0,0,.105.682h-3.34a.81.81,0,0,0-.812.812v1.685a.81.81,0,0,0,.812.812h6.946Zm-2.131-.688a.69.69,0,0,1,.688-.688,1.349,1.349,0,0,1,1.258.867l.192.5h-1.45A.681.681,0,0,1,123.532,131.555Z" fill="#bf8175"/>
      <path id="Path_95" data-name="Path 95" d="M125.287,250.3h6.431v9.951h-6.431a.788.788,0,0,1-.787-.787v-8.377A.788.788,0,0,1,125.287,250.3Z" transform="translate(-6.191 -113.503)" fill="#bf8175"/>
      <path id="Path_96" data-name="Path 96" d="M271,250.3h6.431a.788.788,0,0,1,.787.787v8.377a.788.788,0,0,1-.787.787H271Z" transform="translate(-143.614 -113.503)" fill="#bf8175"/>
    </g>
  </g>
</svg>
