<svg xmlns="http://www.w3.org/2000/svg" width="28.276" height="28.276" viewBox="0 0 28.276 28.276">
  <g id="boite-surprise" transform="translate(-0.001)">
    <path id="Path_71" data-name="Path 71" d="M26.8,144.231l-4.608,4.188H6.086l-4.608-4.188A.884.884,0,0,0,.29,145.539l4.571,4.155v13.747a.883.883,0,0,0,.884.884H22.534a.883.883,0,0,0,.884-.884V149.694l4.571-4.155a.884.884,0,0,0-1.189-1.308Zm-7.863,11.393-1.654,1.612a.276.276,0,0,0-.079.244l.391,2.276a.885.885,0,0,1-1.282.931l-2.044-1.075a.276.276,0,0,0-.257,0l-2.044,1.075a.884.884,0,0,1-1.282-.931l.391-2.276a.276.276,0,0,0-.079-.244l-1.654-1.612a.884.884,0,0,1,.489-1.507l2.286-.332a.276.276,0,0,0,.208-.151l1.022-2.071a.884.884,0,0,1,1.585,0l1.022,2.071a.276.276,0,0,0,.208.151l2.286.332a.884.884,0,0,1,.489,1.507Z" transform="translate(0 -136.049)"/>
    <path id="Path_72" data-name="Path 72" d="M222.887,331.109l-.252-.511a.276.276,0,0,0-.5,0l-.252.511a.883.883,0,0,1-.665.484l-.563.082a.276.276,0,0,0-.153.471l.408.4a.884.884,0,0,1,.254.782l-.1.561a.276.276,0,0,0,.4.291l.5-.265a.884.884,0,0,1,.823,0l.5.265a.276.276,0,0,0,.4-.291l-.1-.561a.884.884,0,0,1,.254-.782l.408-.4a.276.276,0,0,0-.153-.471l-.563-.082A.883.883,0,0,1,222.887,331.109Z" transform="translate(-208.248 -312.195)"/>
    <path id="Path_73" data-name="Path 73" d="M48.973,17.356c.041,0,4.131-.331,6.677,2a7.134,7.134,0,0,1,2.081,5.513.884.884,0,1,0,1.767,0,8.814,8.814,0,0,0-2.664-6.825c-3.129-2.858-7.821-2.467-8.019-2.449a.884.884,0,0,0,.159,1.76Z" transform="translate(-45.359 -14.708)"/>
    <path id="Path_74" data-name="Path 74" d="M304,70.626a.884.884,0,1,0,1.767,0c0-.169.069-4.152,3.708-4.88a.884.884,0,1,0-.347-1.733,5.981,5.981,0,0,0-4.508,3.73A8.248,8.248,0,0,0,304,70.626Z" transform="translate(-287.209 -60.464)"/>
    <path id="Path_75" data-name="Path 75" d="M432.883,35.093h.442v.442a.884.884,0,1,0,1.767,0v-.442h.442a.884.884,0,1,0,0-1.767h-.442v-.442a.884.884,0,1,0-1.767,0v.442h-.442a.884.884,0,1,0,0,1.767Z" transform="translate(-408.14 -30.233)"/>
    <path id="Path_76" data-name="Path 76" d="M240.883,3.093h.442v.442a.884.884,0,0,0,1.767,0V3.093h.442a.884.884,0,0,0,0-1.767h-.442V.884a.884.884,0,0,0-1.767,0v.442h-.442a.884.884,0,1,0,0,1.767Z" transform="translate(-226.744)"/>
    <path id="Path_77" data-name="Path 77" d="M90.208,100.418a.884.884,0,0,0,.884-.884v-.442h.442a.884.884,0,1,0,0-1.767h-.442v-.442a.884.884,0,0,0-1.767,0v.442h-.442a.884.884,0,1,0,0,1.767h.442v.442A.884.884,0,0,0,90.208,100.418Z" transform="translate(-83.138 -90.698)"/>
  </g>
</svg>
