<svg xmlns="http://www.w3.org/2000/svg" width="164.928" height="23.911" viewBox="0 0 164.928 23.911">
  <g id="Grupo_79" data-name="Grupo 79" transform="translate(-221.061 -233.787)">
    <path id="Caminho_102" data-name="Caminho 102" d="M1681.446,236.1h-6.667a.513.513,0,0,0-.514.513v6.668a.513.513,0,0,0,.514.513h6.667a.513.513,0,0,0,.513-.513v-6.668A.513.513,0,0,0,1681.446,236.1Zm-.722,4.661h-1.8v1.8H1677.3v-1.8h-1.8v-1.628h1.8v-1.8h1.628v1.8h1.8Z" transform="translate(-1295.971 -2.066)" fill="#b9726a"/>
    <g id="Grupo_52" data-name="Grupo 52" transform="translate(231.495 234.123)">
      <path id="Caminho_103" data-name="Caminho 103" d="M330.814,256.684l-10.161-19.259a1,1,0,0,0-1.8.045l-1.365,2.931,2.659,5.265.007.013,3.838,7.553H324l1.118,2.217a2.936,2.936,0,0,1-1.191,3.885h0v.686h9.833v-.686l-1.263-.812A4.9,4.9,0,0,1,330.814,256.684Z" transform="translate(-317.491 -236.889)" fill="#fff"/>
      <path id="Caminho_104" data-name="Caminho 104" d="M483.121,309.533v.686H475.93v-4.868a6.322,6.322,0,0,1-6.6,5.314c-3.706,0-5.981-2.091-5.981-6.308v-7.329a2.936,2.936,0,0,0-1.813-2.712l-1.085-.449v-.686h7.228v11.108c0,2.674,1.248,4.114,3.6,4.114,2.972,0,4.66-2.4,4.66-5.451v-5.923a2.936,2.936,0,0,0-1.813-2.713l-1.086-.449v-.686h7.228v13.2a2.936,2.936,0,0,0,1.8,2.707Z" transform="translate(-444.979 -287.089)" fill="#fff"/>
      <path id="Caminho_105" data-name="Caminho 105" d="M696.449,260.082a5.375,5.375,0,0,1-5.467,4.525,5.028,5.028,0,0,1-5.32-5.383V247.809H682.91v-.686h2.752l3.632-5.588h0a.7.7,0,0,1,.7.7v4.891H695.9v.686h-5.907V259.4a2.674,2.674,0,0,0,2.715,2.983,3.186,3.186,0,0,0,3.119-2.5Z" transform="translate(-643.372 -241.032)" fill="#fff"/>
      <path id="Caminho_106" data-name="Caminho 106" d="M840.074,300.548l.587.206a8.773,8.773,0,0,1-8.732,6.24c-5.577,0-9.98-3.737-9.98-8.982s4.366-8.948,9.906-8.948,9.062,3.531,9.062,8.948H826.572a6.984,6.984,0,0,0,7.155,6.685A6.746,6.746,0,0,0,840.074,300.548Zm-13.5-3.223H836.7c-.146-5.382-1.724-7.645-4.843-7.645C828.663,289.68,826.645,292.354,826.572,297.325Z" transform="translate(-767.368 -283.418)" fill="#fff"/>
      <path id="Caminho_107" data-name="Caminho 107" d="M1040.972,305.862v.686h-9.723v-.686l.832-.4a2.936,2.936,0,0,0,1.663-2.646V295.44c0-2.709-1.247-4.148-3.6-4.148-2.972,0-4.66,2.4-4.66,5.485V302.8a2.936,2.936,0,0,0,1.678,2.653l.853.4v.686H1018.3v-.686l1.061-.445a2.936,2.936,0,0,0,1.8-2.707v-9.363a2.936,2.936,0,0,0-1.8-2.707l-1.061-.445v-.686h7.191v4.868a6.293,6.293,0,0,1,6.6-5.314c3.706,0,5.98,2.057,5.98,6.273V302.7a2.936,2.936,0,0,0,1.813,2.712Z" transform="translate(-942.471 -283.418)" fill="#fff"/>
      <path id="Caminho_108" data-name="Caminho 108" d="M1243.562,260.082a5.375,5.375,0,0,1-5.467,4.525,5.028,5.028,0,0,1-5.32-5.383V247.809h-2.752v-.686h2.752l3.632-5.588h0a.7.7,0,0,1,.7.7v4.891h5.907v.686H1237.1V259.4a2.674,2.674,0,0,0,2.715,2.983,3.186,3.186,0,0,0,3.119-2.5Z" transform="translate(-1131.289 -241.032)" fill="#fff"/>
      <path id="Caminho_109" data-name="Caminho 109" d="M1381.128,309.533v.686h-10.09v-.686l1.062-.445a2.935,2.935,0,0,0,1.8-2.707v-9.363a2.936,2.936,0,0,0-1.8-2.707l-1.061-.445v-.686h7.191v13.191a2.936,2.936,0,0,0,1.813,2.712Z" transform="translate(-1257.047 -287.089)" fill="#fff"/>
      <path id="Caminho_110" data-name="Caminho 110" d="M1489.217,260.213l1.053.436v.686h-10.09v-.686l1.061-.445a2.936,2.936,0,0,0,1.8-2.707V242.2a2.936,2.936,0,0,0-1.8-2.707l-1.061-.445v-.686h7.191v19.087A2.989,2.989,0,0,0,1489.217,260.213Z" transform="translate(-1354.38 -238.205)" fill="#fff"/>
    </g>
    <path id="Caminho_111" data-name="Caminho 111" d="M235.164,356.27a4.72,4.72,0,0,0-2.545-.563,6.561,6.561,0,0,0-2.62.722,11.372,11.372,0,0,0-3.664,3.189c-.916,1.154-1.6,2.282-2.3,3.269a13.44,13.44,0,0,1-2.971,3.082h0c1.9,0,3.785.165,5.827-1.179A10.072,10.072,0,0,0,229.694,362a30.724,30.724,0,0,0,1.992-2.848A6.744,6.744,0,0,1,235.164,356.27Z" transform="translate(0 -108.723)" fill="#fff"/>
    <circle id="Elipse_11" data-name="Elipse 11" cx="2.323" cy="2.323" r="2.323" transform="translate(348.104 233.787)" fill="#fff"/>
    <path id="Caminho_112" data-name="Caminho 112" d="M1561.635,319.539a30.721,30.721,0,0,0-1.992-2.848,10.071,10.071,0,0,0-2.805-2.792,7.579,7.579,0,0,0-4.39-1.184v0a7.578,7.578,0,0,0,4.39-1.184,10.07,10.07,0,0,0,2.805-2.792c.46-.582.8-1.057,1.121-1.519h-5.128c-.61.849-1.125,1.668-1.655,2.408a13.44,13.44,0,0,1-2.971,3.082h0l-.009.007.01.007a13.444,13.444,0,0,1,2.969,3.081c.707.987,1.388,2.116,2.3,3.269a11.372,11.372,0,0,0,3.664,3.189,6.558,6.558,0,0,0,2.62.722,4.72,4.72,0,0,0,2.545-.563A6.743,6.743,0,0,1,1561.635,319.539Z" transform="translate(-1186.044 -65.485)" fill="#fff"/>
    <path id="Caminho_113" data-name="Caminho 113" d="M1690.908,250.948h-1.8v1.8h-1.627v-1.8h-1.8v-1.628h1.8v-1.8h1.627v1.8h1.8Z" transform="translate(-1306.155 -12.25)" fill="#fff"/>
  </g>
</svg>
