<svg xmlns="http://www.w3.org/2000/svg" width="41.134" height="41" viewBox="0 0 41.134 41">
  <g id="Grupo_168" data-name="Grupo 168" transform="translate(-849.5 -886.047)">
    <rect id="bg" width="40.134" height="40" rx="20" transform="translate(850 886.547)" fill="#bf8175" stroke="#bf8175" stroke-width="1"/>
    <path id="bag" d="M32.141,17.227,31.121,4.646a.479.479,0,0,0-.478-.44H27.916V3.6a3.6,3.6,0,0,0-3.6-3.6h-.038a3.63,3.63,0,0,0-3.62,3.62v.586H17.967a.479.479,0,0,0-.478.44L16.47,17.265a.474.474,0,0,0,.293.478.519.519,0,0,0,.2.038H31.67a.469.469,0,0,0,.452-.319A.5.5,0,0,0,32.141,17.227ZM21.613,3.6A2.667,2.667,0,0,1,24.277.956h.064A2.63,2.63,0,0,1,26.966,3.6v.605H21.613ZM28.738,8.61,23.047,14.3,19.879,11.14A.757.757,0,0,1,20.95,10.07l2.1,2.1,4.627-4.627A.755.755,0,1,1,28.738,8.61Z" transform="translate(845.758 895.656)" fill="#fff"/>
  </g>
</svg>
