<svg xmlns="http://www.w3.org/2000/svg" width="29" height="17" viewBox="0 0 29 17">
  <g id="Grupo_152" data-name="Grupo 152" transform="translate(-840 -734.164)" opacity="0.453">
    <rect id="Retângulo_40" data-name="Retângulo 40" width="7" height="2" rx="1" transform="translate(840 734.164)" fill="#404040"/>
    <rect id="Retângulo_46" data-name="Retângulo 46" width="7" height="2" rx="1" transform="translate(840 739.164)" fill="#404040"/>
    <rect id="Retângulo_49" data-name="Retângulo 49" width="7" height="2" rx="1" transform="translate(840 744.164)" fill="#404040"/>
    <rect id="Retângulo_52" data-name="Retângulo 52" width="7" height="2" rx="1" transform="translate(840 749.164)" fill="#404040"/>
    <rect id="Retângulo_41" data-name="Retângulo 41" width="7" height="2" rx="1" transform="translate(851 734.164)" fill="#404040"/>
    <rect id="Retângulo_47" data-name="Retângulo 47" width="7" height="2" rx="1" transform="translate(851 739.164)" fill="#404040"/>
    <rect id="Retângulo_50" data-name="Retângulo 50" width="7" height="2" rx="1" transform="translate(851 744.164)" fill="#404040"/>
    <rect id="Retângulo_53" data-name="Retângulo 53" width="7" height="2" rx="1" transform="translate(851 749.164)" fill="#404040"/>
    <rect id="Retângulo_42" data-name="Retângulo 42" width="7" height="2" rx="1" transform="translate(862 734.164)" fill="#404040"/>
    <rect id="Retângulo_48" data-name="Retângulo 48" width="7" height="2" rx="1" transform="translate(862 739.164)" fill="#404040"/>
    <rect id="Retângulo_51" data-name="Retângulo 51" width="7" height="2" rx="1" transform="translate(862 744.164)" fill="#404040"/>
    <rect id="Retângulo_54" data-name="Retângulo 54" width="7" height="2" rx="1" transform="translate(862 749.164)" fill="#404040"/>
  </g>
</svg>
