<svg id="Grupo_13" data-name="Grupo 13" xmlns="http://www.w3.org/2000/svg" width="21.691" height="17.917" viewBox="0 0 21.691 17.917">
  <g id="Grupo_2" data-name="Grupo 2" transform="translate(0 4.727)">
    <g id="Grupo_1" data-name="Grupo 1">
      <path id="Caminho_3" data-name="Caminho 3" d="M11.386,121.179,3,117.9a.441.441,0,0,0-.562.22.383.383,0,0,0-.032.152v2.876H4a.405.405,0,1,1,0,.809H1.8a.405.405,0,1,0,0,.809h.6v.352H6.887a.405.405,0,1,1,0,.809H.43a.405.405,0,1,0,0,.809h1.98v.352h2.4a.405.405,0,1,1,0,.809H1.184a.405.405,0,1,0,0,.809H2.4v.655a.4.4,0,0,0,.258.4l8.394,3.264a.441.441,0,0,0,.562-.22.383.383,0,0,0,.032-.152v-9.1A.4.4,0,0,0,11.386,121.179Z" transform="translate(0 -117.869)" fill="#fff"/>
    </g>
  </g>
  <g id="Grupo_4" data-name="Grupo 4" transform="translate(12.44 4.726)">
    <g id="Grupo_3" data-name="Grupo 3" transform="translate(0 0)">
      <path id="Caminho_4" data-name="Caminho 4" d="M240.257,117.919a.454.454,0,0,0-.4-.036l-8.385,3.28a.405.405,0,0,0-.267.372v9.1a.418.418,0,0,0,.433.4.455.455,0,0,0,.161-.03l8.39-3.264a.405.405,0,0,0,.267-.372v-9.121A.4.4,0,0,0,240.257,117.919Z" transform="translate(-231.2 -117.851)" fill="#fff"/>
    </g>
  </g>
  <g id="Grupo_6" data-name="Grupo 6" transform="translate(8.054 1.991)">
    <g id="Grupo_5" data-name="Grupo 5">
      <path id="Caminho_5" data-name="Caminho 5" d="M162.219,64.964l-3.25-1.213-1.115.449-7.073,2.852-1.1.433,3.827,1.5a.456.456,0,0,0,.331,0l8.39-3.28a.387.387,0,0,0-.009-.736Z" transform="translate(-149.68 -63.751)" fill="#fff"/>
    </g>
  </g>
  <g id="Grupo_8" data-name="Grupo 8" transform="translate(3.228 0)">
    <g id="Grupo_7" data-name="Grupo 7">
      <path id="Caminho_6" data-name="Caminho 6" d="M68.977,24.4a.456.456,0,0,0-.323,0l-8.39,3.175a.4.4,0,0,0-.235.528.418.418,0,0,0,.235.22h0l3.474,1.367,1.1-.445,7.06-2.86,1.115-.453Z" transform="translate(-59.998 -24.368)" fill="#fff"/>
    </g>
  </g>
  <g id="Grupo_10" data-name="Grupo 10" transform="translate(13.168 15.593)">
    <g id="Grupo_9" data-name="Grupo 9">
      <path id="Caminho_7" data-name="Caminho 7" d="M245.216,332.782h-.022a.442.442,0,0,0-.473.4.436.436,0,0,0,.43.444.442.442,0,0,0,.473-.4c0-.007,0-.013,0-.02A.415.415,0,0,0,245.216,332.782Z" transform="translate(-244.72 -332.781)" fill="#fff"/>
    </g>
  </g>
  <g id="Grupo_12" data-name="Grupo 12" transform="translate(15.101 14.966)">
    <g id="Grupo_11" data-name="Grupo 11">
      <path id="Caminho_8" data-name="Caminho 8" d="M281.136,320.382h-.022a.442.442,0,0,0-.473.4.436.436,0,0,0,.43.444.442.442,0,0,0,.473-.4c0-.007,0-.013,0-.02A.415.415,0,0,0,281.136,320.382Z" transform="translate(-280.64 -320.381)" fill="#fff"/>
    </g>
  </g>
</svg>
