<svg xmlns="http://www.w3.org/2000/svg" width="41.134" height="41" viewBox="0 0 41.134 41">
  <g id="Grupo_169" data-name="Grupo 169" transform="translate(-1104.676 -886.047)">
    <rect id="bg" width="40.134" height="40" rx="20" transform="translate(1105.176 886.547)" fill="none" stroke="#bf8175" stroke-width="1"/>
    <path id="Caminho_28" data-name="Caminho 28" d="M20.559,83.333V82.249A2.249,2.249,0,0,0,18.31,80H2.249A2.249,2.249,0,0,0,0,82.249v1.084a.2.2,0,0,0,.2.2H20.358A.2.2,0,0,0,20.559,83.333Z" transform="translate(1113.979 819.48)" fill="#bf8175"/>
    <path id="Caminho_29" data-name="Caminho 29" d="M0,200.2v6.866a2.249,2.249,0,0,0,2.249,2.249H18.31a2.249,2.249,0,0,0,2.249-2.249V200.2a.2.2,0,0,0-.2-.2H.2A.2.2,0,0,0,0,200.2Zm5.14,5.26a.642.642,0,0,1-.642.642H3.855a.642.642,0,0,1-.642-.642v-.642a.642.642,0,0,1,.642-.642H4.5a.642.642,0,0,1,.642.642Z" transform="translate(1113.979 704.299)" fill="#bf8175"/>
  </g>
</svg>
