<svg xmlns="http://www.w3.org/2000/svg" width="26.626" height="18.054" viewBox="0 0 26.626 18.054">
  <g id="Grupo_25" data-name="Grupo 25" transform="translate(0 0)">
    <g id="Grupo_16" data-name="Grupo 16" transform="translate(17.305 4.762)">
      <g id="Grupo_15" data-name="Grupo 15" transform="translate(0 0)">
        <path id="Caminho_9" data-name="Caminho 9" d="M240.326,117.919a.458.458,0,0,0-.408-.037l-8.449,3.305a.408.408,0,0,0-.269.375v9.174a.422.422,0,0,0,.436.406.458.458,0,0,0,.163-.031l8.453-3.289a.408.408,0,0,0,.269-.375v-9.19A.4.4,0,0,0,240.326,117.919Z" transform="translate(-231.2 -117.851)" fill="#030303"/>
      </g>
    </g>
    <g id="Grupo_18" data-name="Grupo 18" transform="translate(12.885 2.006)">
      <g id="Grupo_17" data-name="Grupo 17" transform="translate(0 0)">
        <path id="Caminho_10" data-name="Caminho 10" d="M162.315,64.974l-3.275-1.223-1.123.452-7.126,2.873-1.11.436,3.856,1.508a.46.46,0,0,0,.334,0l8.453-3.305a.39.39,0,0,0-.009-.742Z" transform="translate(-149.68 -63.751)" fill="#030303"/>
      </g>
    </g>
    <g id="Grupo_20" data-name="Grupo 20" transform="translate(8.023 0)">
      <g id="Grupo_19" data-name="Grupo 19" transform="translate(0)">
        <path id="Caminho_11" data-name="Caminho 11" d="M69.046,24.4a.46.46,0,0,0-.325,0l-8.453,3.2a.4.4,0,0,0-.236.532.421.421,0,0,0,.236.222h0l3.5,1.378,1.11-.448L71.986,26.4l1.123-.456Z" transform="translate(-59.998 -24.367)" fill="#030303"/>
      </g>
    </g>
    <g id="Grupo_22" data-name="Grupo 22" transform="translate(18.038 15.712)">
      <g id="Grupo_21" data-name="Grupo 21" transform="translate(0 0)">
        <path id="Caminho_12" data-name="Caminho 12" d="M245.22,332.782H245.2a.445.445,0,0,0-.477.407.439.439,0,0,0,.433.448.445.445,0,0,0,.477-.407c0-.007,0-.013,0-.02A.418.418,0,0,0,245.22,332.782Z" transform="translate(-244.72 -332.781)" fill="#030303"/>
      </g>
    </g>
    <g id="Grupo_24" data-name="Grupo 24" transform="translate(19.986 15.08)">
      <g id="Grupo_23" data-name="Grupo 23" transform="translate(0 0)">
        <path id="Caminho_13" data-name="Caminho 13" d="M281.14,320.382h-.022a.445.445,0,0,0-.477.407.439.439,0,0,0,.433.448.446.446,0,0,0,.477-.407c0-.007,0-.013,0-.02A.418.418,0,0,0,281.14,320.382Z" transform="translate(-280.64 -320.381)" fill="#030303"/>
      </g>
    </g>
    <path id="Caminho_14" data-name="Caminho 14" d="M-71.741,121.2l-8.453-3.305a.444.444,0,0,0-.566.222.386.386,0,0,0-.033.153v.916h.4a.421.421,0,0,1,.434.408.421.421,0,0,1-.434.408h-3.494a.421.421,0,0,0-.434.408.421.421,0,0,0,.434.408h3.095v.352h1.613a.421.421,0,0,1,.434.408.421.421,0,0,1-.434.408H-86.17a.421.421,0,0,0-.433.408.421.421,0,0,0,.433.407h5.377v.355h4.52a.421.421,0,0,1,.434.408.421.421,0,0,1-.434.408H-87.549a.421.421,0,0,0-.434.408.421.421,0,0,0,.434.408h6.765v.355h2.42a.421.421,0,0,1,.434.408.421.421,0,0,1-.434.408H-86.79a.421.421,0,0,0-.434.408.421.421,0,0,0,.434.408h6v.66a.405.405,0,0,0,.26.408l8.458,3.289a.444.444,0,0,0,.566-.222.386.386,0,0,0,.033-.153V121.58A.408.408,0,0,0-71.741,121.2Z" transform="translate(87.983 -113.106)" fill="#030303"/>
  </g>
</svg>
