<svg xmlns="http://www.w3.org/2000/svg" width="25" height="25" viewBox="0 0 25 25">
  <g id="Grupo_114" data-name="Grupo 114" transform="translate(-1258.895 -243.946)">
    <circle id="Elipse_12" data-name="Elipse 12" cx="12.5" cy="12.5" r="12.5" transform="translate(1258.895 243.946)" fill="#9caf98"/>
    <g id="Grupo_95" data-name="Grupo 95" transform="translate(1264.552 249.383)">
      <path id="Caminho_142" data-name="Caminho 142" d="M-543.106-66.448v8.059a.51.51,0,0,0,.51.51h11.962a.51.51,0,0,0,.51-.51v-8.059a.51.51,0,0,0-.51-.51H-542.6A.51.51,0,0,0-543.106-66.448Z" transform="translate(543.106 70.403)" fill="#fff"/>
      <path id="Caminho_143" data-name="Caminho 143" d="M-299.068-184.792H-302.5v-1.356h4.5Z" transform="translate(310.99 186.148)" fill="#fff"/>
      <path id="Caminho_144" data-name="Caminho 144" d="M-299.068-150.989H-302.5v1.356h4.5Z" transform="translate(310.99 152.269)" fill="#fff"/>
      <rect id="Ret창ngulo_34" data-name="Ret창ngulo 34" width="3.26" height="1.454" transform="translate(4.63 6.96) rotate(45)" fill="#9caf98"/>
      <rect id="Ret창ngulo_35" data-name="Ret창ngulo 35" width="5.279" height="1.454" transform="translate(9.671 6.623) rotate(135)" fill="#9caf98"/>
    </g>
  </g>
</svg>
