<svg xmlns="http://www.w3.org/2000/svg" width="33.763" height="17.505" viewBox="0 0 33.763 17.505">
  <g id="Grupo_120" data-name="Grupo 120" transform="translate(-39.984 289.505) rotate(-90)">
    <g id="Grupo_117" data-name="Grupo 117" transform="translate(272 39.984)">
      <path id="Caminho_212" data-name="Caminho 212" d="M280.753,66.249A8.754,8.754,0,0,1,272,57.5c0-4.832,3.92-17.512,8.753-17.512s8.753,12.679,8.753,17.512A8.754,8.754,0,0,1,280.753,66.249Z" transform="translate(-272 -39.984)" fill="#a0d468"/>
    </g>
    <g id="Grupo_118" data-name="Grupo 118" transform="translate(277 57.493)">
      <path id="Caminho_213" data-name="Caminho 213" d="M339.731,268.405a.623.623,0,0,1-.442-.183l-3.124-3.125a.625.625,0,0,1,.884-.884l3.124,3.125a.625.625,0,0,1-.442,1.067Z" transform="translate(-335.982 -264.03)" fill="#844747"/>
    </g>
    <g id="Grupo_119" data-name="Grupo 119" transform="translate(280.124 55.616)">
      <path id="Caminho_214" data-name="Caminho 214" d="M376.585,258.147a.625.625,0,0,1-.625-.625v-16.88a.625.625,0,1,1,1.25,0v16.88A.625.625,0,0,1,376.585,258.147Z" transform="translate(-375.96 -240.016)" fill="#965353"/>
    </g>
  </g>
</svg>
